<?xml version="1.0" encoding="UTF-8"?><svg id="Layer_2" xmlns="http://www.w3.org/2000/svg" xmlns:xlink="http://www.w3.org/1999/xlink" viewBox="0 0 162.38 252.77"><defs><style>.cls-1{fill:none;}.cls-1,.cls-2,.cls-3,.cls-4{stroke-width:0px;}.cls-2{fill:#3aaa35;}.cls-3{fill:#fff;}.cls-5{clip-path:url(#clippath);}.cls-4{fill:#36a9e1;}</style><clipPath id="clippath"><rect class="cls-1" width="162.38" height="252.77"/></clipPath></defs><g id="Layer_1-2"><g class="cls-5"><rect class="cls-4" width="162.38" height="252.77"/><ellipse class="cls-2" cx="72.85" cy="159.4" rx="45.62" ry="16.51"/><ellipse class="cls-2" cx="27.23" cy="162.64" rx="45.62" ry="16.51"/><ellipse class="cls-2" cx="42.41" cy="142.89" rx="45.62" ry="16.51"/><ellipse class="cls-2" cx="101.45" cy="142.89" rx="45.62" ry="16.51"/><ellipse class="cls-2" cx="131.81" cy="156.17" rx="45.62" ry="16.51"/><ellipse class="cls-3" cx="19.55" cy="12.41" rx="16.78" ry="8.55"/><ellipse class="cls-3" cx="34.92" cy="12.41" rx="16.78" ry="8.55"/><ellipse class="cls-3" cx="27.09" cy="20.96" rx="16.78" ry="8.55"/><ellipse class="cls-3" cx="42.41" cy="19.43" rx="16.78" ry="8.55"/><ellipse class="cls-3" cx="138.27" cy="38.07" rx="16.78" ry="8.55"/><ellipse class="cls-3" cx="123.55" cy="50.07" rx="16.78" ry="8.55"/><ellipse class="cls-3" cx="112.03" cy="3.85" rx="16.78" ry="8.55"/><ellipse class="cls-3" cx="104.7" cy="12.41" rx="16.78" ry="8.55"/><ellipse class="cls-3" cx="145.6" cy="48.15" rx="16.78" ry="8.55"/><rect class="cls-2" x=".68" y="167.57" width="161.7" height="85.19"/></g></g></svg>